<svg width="22" height="16" viewBox="0 0 22 16" fill="none" xmlns="http://www.w3.org/2000/svg">
<path d="M3.75 5.72901C3.75 6.84501 5.54 7.75001 7.75 7.75001V5.72901C7.75 4.73501 7.75 4.23701 7.353 3.93401C6.955 3.63101 6.561 3.74401 5.773 3.97101C4.565 4.32001 3.75 4.97501 3.75 5.72901Z" stroke="black" stroke-width="1.5" stroke-linecap="round" stroke-linejoin="round"/>
<path d="M14.75 4.25C14.75 6.183 11.616 7.75 7.75 7.75C3.884 7.75 0.75 6.183 0.75 4.25C0.75 2.317 3.884 0.75 7.75 0.75C11.616 0.75 14.75 2.317 14.75 4.25Z" stroke="black" stroke-width="1.5" stroke-linecap="round" stroke-linejoin="round"/>
<path d="M0.75 4.75V11.417C0.75 13.257 3.884 14.75 7.75 14.75H18.75C19.693 14.75 20.164 14.75 20.457 14.457C20.75 14.164 20.75 13.693 20.75 12.75V9.75C20.75 8.807 20.75 8.336 20.457 8.043C20.164 7.75 19.693 7.75 18.75 7.75H7.75M16.75 14.75V12.75M12.75 14.75V12.75M8.75 14.75V12.75M4.75 14.25V12.25" stroke="black" stroke-width="1.5" stroke-linecap="round" stroke-linejoin="round"/>
</svg>
