<svg width="24" height="24" viewBox="0 0 24 24" fill="none" xmlns="http://www.w3.org/2000/svg">
<path d="M17 20C17.5304 20 18.0391 19.7893 18.4142 19.4142C18.7893 19.0391 19 18.5304 19 18C19 17.4696 18.7893 16.9609 18.4142 16.5858C18.0391 16.2107 17.5304 16 17 16C16.4696 16 15.9609 16.2107 15.5858 16.5858C15.2107 16.9609 15 17.4696 15 18C15 18.5304 15.2107 19.0391 15.5858 19.4142C15.9609 19.7893 16.4696 20 17 20ZM7 20C7.53043 20 8.03914 19.7893 8.41421 19.4142C8.78929 19.0391 9 18.5304 9 18C9 17.4696 8.78929 16.9609 8.41421 16.5858C8.03914 16.2107 7.53043 16 7 16C6.46957 16 5.96086 16.2107 5.58579 16.5858C5.21071 16.9609 5 17.4696 5 18C5 18.5304 5.21071 19.0391 5.58579 19.4142C5.96086 19.7893 6.46957 20 7 20Z" stroke="black" stroke-width="1.5" stroke-linecap="round" stroke-linejoin="round"/>
<path d="M19 11H22M22 11V13C22 15.357 22 16.535 21.268 17.268C20.781 17.755 20.097 17.918 19 17.972M22 11L20.724 8.63C20.034 7.348 19.689 6.707 19.096 6.354C18.504 6 17.777 6 16.321 6H14.5M5 17.972C3.903 17.918 3.22 17.755 2.732 17.268C2 16.535 2 15.357 2 13V9C2 6.643 2 5.464 2.732 4.732C3.464 4 4.643 4 7 4H10.3C11.417 4 11.975 4 12.427 4.147C12.8772 4.2933 13.2864 4.54408 13.6212 4.87882C13.9559 5.21356 14.2067 5.62277 14.353 6.073C14.5 6.525 14.5 7.083 14.5 8.2C14.5 9.42 14.5 10.031 14.166 10.444C14.1 10.5253 14.026 10.5993 13.944 10.666C13.531 11 12.921 11 11.7 11H8M15 18H9" stroke="black" stroke-width="1.5" stroke-linecap="round" stroke-linejoin="round"/>
<path d="M10 13C10 13 9.328 12.444 8.737 11.916C8.32 11.58 8 11.293 8 11.005C8 10.75 8.25 10.513 8.656 10.141C9.232 9.662 10 9 10 9" stroke="black" stroke-width="1.5" stroke-linecap="round" stroke-linejoin="round"/>
</svg>
