<svg width="24" height="24" viewBox="0 0 24 24" fill="none" xmlns="http://www.w3.org/2000/svg">
<path d="M7.50602 15.265C7.53229 15.3599 7.577 15.4488 7.6376 15.5265C7.6982 15.6041 7.7735 15.6691 7.85921 15.7177C7.94492 15.7662 8.03935 15.7974 8.13712 15.8095C8.23489 15.8216 8.33408 15.8143 8.42902 15.788C8.52397 15.7617 8.61281 15.717 8.69048 15.6564C8.76815 15.5958 8.83312 15.5205 8.88168 15.4348C8.93025 15.3491 8.96146 15.2547 8.97353 15.1569C8.98559 15.0591 8.97829 14.9599 8.95202 14.865L7.50602 15.265ZM3.20002 4.725C3.10471 4.69716 3.00481 4.68852 2.90612 4.6996C2.80744 4.71067 2.71194 4.74123 2.62516 4.7895C2.53838 4.83777 2.46205 4.90279 2.4006 4.9808C2.33915 5.0588 2.2938 5.14823 2.26719 5.2439C2.24057 5.33957 2.23322 5.43957 2.24556 5.53811C2.2579 5.63664 2.28968 5.73174 2.33906 5.81789C2.38844 5.90404 2.45444 5.97953 2.53323 6.03998C2.61202 6.10042 2.70202 6.14462 2.79802 6.17L3.20002 4.725ZM20.188 15.725C20.2857 15.7024 20.3778 15.6605 20.459 15.6017C20.5402 15.5429 20.6087 15.4684 20.6607 15.3827C20.7126 15.2969 20.7468 15.2017 20.7612 15.1025C20.7757 15.0033 20.7701 14.9022 20.7448 14.8052C20.7196 14.7082 20.6751 14.6173 20.6141 14.5377C20.5531 14.4582 20.4767 14.3917 20.3896 14.3422C20.3025 14.2927 20.2063 14.2611 20.1067 14.2494C20.0072 14.2377 19.9063 14.2461 19.81 14.274L20.188 15.725ZM10.197 17.559C10.507 18.679 9.82702 19.862 8.62302 20.175L9.00002 21.626C10.977 21.113 12.185 19.124 11.643 17.159L10.197 17.559ZM8.62302 20.175C7.41102 20.49 6.19502 19.786 5.88302 18.656L4.43702 19.056C4.97702 21.011 7.03102 22.138 9.00002 21.626L8.62302 20.175ZM5.88302 18.656C5.57302 17.536 6.25302 16.353 7.45702 16.04L7.08002 14.59C5.10302 15.103 3.89402 17.091 4.43702 19.056L5.88302 18.656ZM7.45702 16.04C8.66902 15.725 9.88502 16.429 10.197 17.559L11.643 17.159C11.103 15.204 9.04902 14.077 7.08002 14.589L7.45702 16.04ZM8.95202 14.865L6.80002 7.075L5.35402 7.475L7.50602 15.265L8.95202 14.865ZM4.90402 5.197L3.20002 4.725L2.79802 6.17L4.50302 6.643L4.90402 5.197ZM6.80002 7.075C6.67288 6.62499 6.43145 6.21553 6.09921 5.88644C5.76697 5.55736 5.35523 5.31985 4.90402 5.197L4.50502 6.643C4.93002 6.761 5.24602 7.084 5.35402 7.475L6.80002 7.075ZM11.11 18.085L20.188 15.725L19.811 14.274L10.732 16.634L11.11 18.085Z" fill="black"/>
<path d="M9.56501 8.73C9.08001 6.975 8.83801 6.097 9.25001 5.406C9.66101 4.714 10.566 4.479 12.376 4.008L14.296 3.51C16.106 3.04 17.011 2.804 17.724 3.203C18.437 3.603 18.68 4.48 19.164 6.236L19.679 8.098C20.164 9.853 20.407 10.731 19.995 11.423C19.583 12.114 18.678 12.35 16.868 12.82L14.948 13.319C13.138 13.789 12.233 14.024 11.52 13.625C10.807 13.225 10.565 12.348 10.08 10.593L9.56501 8.73Z" stroke="black" stroke-width="1.5"/>
</svg>
